<?xml version="1.0" encoding="UTF-8" standalone="no"?>
<!-- Created with Inkscape (http://www.inkscape.org/) -->

<svg
   width="272mm"
   height="63mm"
   viewBox="0 0 272 63"
   version="1.1"
   id="svg5"
   inkscape:version="1.2.2 (732a01da63, 2022-12-09)"
   sodipodi:docname="Googlow2.svg"
   xmlns:inkscape="http://www.inkscape.org/namespaces/inkscape"
   xmlns:sodipodi="http://sodipodi.sourceforge.net/DTD/sodipodi-0.dtd"
   xmlns="http://www.w3.org/2000/svg"
   xmlns:svg="http://www.w3.org/2000/svg">
  <sodipodi:namedview
     id="namedview7"
     pagecolor="#ffffff"
     bordercolor="#000000"
     borderopacity="0.25"
     inkscape:showpageshadow="2"
     inkscape:pageopacity="0.0"
     inkscape:pagecheckerboard="0"
     inkscape:deskcolor="#d1d1d1"
     inkscape:document-units="mm"
     showgrid="false"
     inkscape:zoom="1.0406414"
     inkscape:cx="551.10245"
     inkscape:cy="178.25546"
     inkscape:window-width="1920"
     inkscape:window-height="1013"
     inkscape:window-x="-9"
     inkscape:window-y="29"
     inkscape:window-maximized="1"
     inkscape:current-layer="layer1" />
  <defs
     id="defs2" />
  <g
     inkscape:label="Layer 1"
     inkscape:groupmode="layer"
     id="layer1">
    <g
       aria-label="Googlow"
       id="text4925"
       style="font-weight:bold;font-size:65.2639px;font-family:HGPSoeiKakugothicUB;-inkscape-font-specification:'HGPSoeiKakugothicUB Bold';stroke-width:0.264583">
      <path
         d="m 24.542941,49.046042 q -6.591654,0 -12.139086,-3.197931 Q 6.8564236,42.65018 3.5932285,37.037484 0.33003349,31.424789 0.33003349,24.637343 q 0,-6.787446 3.26319501,-12.400141 3.2631951,-5.6126955 8.8106265,-8.8106266 5.547432,-3.19793114 12.139086,-3.19793114 5.155848,0 9.659057,1.82738924 4.568473,1.8273892 7.505349,5.1558481 L 37.726249,11.19298 Q 35.507276,8.4518958 32.048289,7.0160899 28.589303,5.5150202 24.608205,5.5150202 q -4.960057,0 -9.267474,2.4147643 -4.242154,2.3495005 -6.8527099,6.7221815 -2.5452921,4.307418 -2.5452921,9.985377 0,5.67796 2.5452921,10.050641 2.6105559,4.307417 6.9179739,6.722182 4.307417,2.3495 9.20221,2.3495 4.699,0 7.831668,-1.435806 3.197931,-1.501069 5.482167,-3.915834 1.696862,-1.827389 2.741084,-4.372681 1.044223,-2.610556 1.305278,-5.743223 H 24.673468 V 23.136273 H 47.12425 q 0.32632,1.82739 0.32632,3.393723 0,4.307418 -1.370542,8.419043 -1.370542,4.046362 -4.372681,7.113766 -6.461127,6.983237 -17.164406,6.983237 z"
         style="fill:#00a800"
         id="path1460" />
      <path
         d="m 69.901333,49.046042 q -4.894793,0 -8.810627,-2.3495 -3.915834,-2.349501 -6.134807,-6.395863 -2.153708,-4.046362 -2.153708,-8.941154 0,-4.894793 2.153708,-8.941154 2.218973,-4.046362 6.134807,-6.395863 3.915834,-2.3495 8.810627,-2.3495 4.894792,0 8.810626,2.3495 3.915834,2.349501 6.069543,6.395863 2.218973,4.046361 2.218973,8.941154 0,4.894792 -2.218973,8.941154 -2.153709,4.046362 -6.069543,6.395863 -3.915834,2.3495 -8.810626,2.3495 z m 0,-5.02532 q 3.067403,0 5.677959,-1.50107 2.67582,-1.566334 4.242153,-4.437945 1.631598,-2.871612 1.631598,-6.722182 0,-3.85057 -1.631598,-6.722182 -1.566333,-2.871611 -4.242153,-4.372681 -2.610556,-1.566334 -5.677959,-1.566334 -3.067404,0 -5.743224,1.566334 -2.67582,1.50107 -4.307417,4.372681 -1.566334,2.871612 -1.566334,6.722182 0,3.85057 1.566334,6.722182 1.631597,2.871611 4.307417,4.437945 2.67582,1.50107 5.743224,1.50107 z"
         style="fill:#d5cd00"
         id="path1457" />
      <path
         d="m 108.79866,49.046042 q -4.89479,0 -8.810623,-2.3495 -3.915834,-2.349501 -6.134806,-6.395863 -2.153709,-4.046362 -2.153709,-8.941154 0,-4.894793 2.153709,-8.941154 2.218972,-4.046362 6.134806,-6.395863 3.915833,-2.3495 8.810623,-2.3495 4.8948,0 8.81063,2.3495 3.91583,2.349501 6.06954,6.395863 2.21898,4.046361 2.21898,8.941154 0,4.894792 -2.21898,8.941154 -2.15371,4.046362 -6.06954,6.395863 -3.91583,2.3495 -8.81063,2.3495 z m 0,-5.02532 q 3.06741,0 5.67796,-1.50107 2.67582,-1.566334 4.24216,-4.437945 1.63159,-2.871612 1.63159,-6.722182 0,-3.85057 -1.63159,-6.722182 -1.56634,-2.871611 -4.24216,-4.372681 -2.61055,-1.566334 -5.67796,-1.566334 -3.0674,0 -5.74322,1.566334 -2.67582,1.50107 -4.307417,4.372681 -1.566334,2.871612 -1.566334,6.722182 0,3.85057 1.566334,6.722182 1.631597,2.871611 4.307417,4.437945 2.67582,1.50107 5.74322,1.50107 z"
         style="fill:#0087ff"
         id="path1454" />
      <path
         d="m 146.97808,63.143045 q -5.87375,0 -9.72432,-2.741084 -3.7853,-2.741084 -5.09058,-6.591654 l 5.02532,-2.153709 q 1.10949,2.871612 3.65478,4.633737 2.61055,1.827389 6.1348,1.827389 5.15585,0 7.9622,-3.002139 2.87161,-3.00214 2.87161,-8.484307 v -3.720043 h -0.26105 q -1.6316,2.545292 -4.63374,4.17689 -2.93688,1.566334 -6.72218,1.566334 -4.30742,0 -7.89693,-2.218973 -3.52425,-2.218973 -5.6127,-6.200071 -2.08844,-3.981098 -2.08844,-9.071682 0,-5.02532 2.08844,-9.006418 2.08845,-4.046362 5.6127,-6.265335 3.58951,-2.218972 7.89693,-2.218972 3.7853,0 6.72218,1.631597 3.00214,1.566334 4.63374,4.17689 h 0.26105 V 14.71723 h 5.28638 v 31.979312 q 0,8.027459 -4.43795,12.204349 -4.43794,4.242154 -11.68224,4.242154 z m 0,-19.513907 q 3.00214,0 5.41691,-1.501069 2.48003,-1.50107 3.91583,-4.307418 1.50107,-2.806348 1.50107,-6.656918 0,-3.915834 -1.50107,-6.722182 -1.4358,-2.806347 -3.91583,-4.242153 -2.41477,-1.50107 -5.41691,-1.50107 -3.00213,0 -5.48216,1.50107 -2.48003,1.50107 -3.9811,4.307417 -1.43581,2.806348 -1.43581,6.656918 0,3.85057 1.43581,6.722182 1.50107,2.806348 3.9811,4.307417 2.48003,1.435806 5.48216,1.435806 z"
         style="fill:#00a800"
         id="path1451" />
      <path
         d="m 171.32153,1.2728667 h 5.54743 V 48.00182 h -5.54743 z"
         style="fill:#e10000"
         id="path1448" />
      <path
         d="m 200.42925,49.046042 q -4.89479,0 -8.81063,-2.3495 -3.91583,-2.349501 -6.1348,-6.395863 -2.15371,-4.046362 -2.15371,-8.941154 0,-4.894793 2.15371,-8.941154 2.21897,-4.046362 6.1348,-6.395863 3.91584,-2.3495 8.81063,-2.3495 4.89479,0 8.81063,2.3495 3.91583,2.349501 6.06954,6.395863 2.21897,4.046361 2.21897,8.941154 0,4.894792 -2.21897,8.941154 -2.15371,4.046362 -6.06954,6.395863 -3.91584,2.3495 -8.81063,2.3495 z m 0,-5.02532 q 3.0674,0 5.67796,-1.50107 2.67582,-1.566334 4.24215,-4.437945 1.6316,-2.871612 1.6316,-6.722182 0,-3.85057 -1.6316,-6.722182 -1.56633,-2.871611 -4.24215,-4.372681 -2.61056,-1.566334 -5.67796,-1.566334 -3.0674,0 -5.74322,1.566334 -2.67582,1.50107 -4.30742,4.372681 -1.56634,2.871612 -1.56634,6.722182 0,3.85057 1.56634,6.722182 1.6316,2.871611 4.30742,4.437945 2.67582,1.50107 5.74322,1.50107 z"
         style="fill:#d4ce00"
         id="path1445" />
      <path
         d="m 220.33479,14.71723 h 5.67796 l 7.9622,26.301352 h 0.0653 l 8.35378,-26.301352 h 5.74322 l 8.41905,26.236088 h 0.0653 l 7.89693,-26.236088 h 5.6127 L 259.3626,48.00182 h -5.61269 L 245.13507,21.439412 236.5855,48.00182 h -5.54743 z"
         style="fill:#0087ff"
         id="path1442" />
    </g>
    <g
       aria-label="ググろ。"
       id="text1209"
       style="font-weight:bold;font-size:25.4px;font-family:'Noto Sans Mono CJK JP';-inkscape-font-specification:'Noto Sans Mono CJK JP Bold';stroke-width:0.264583">
      <path
         d="m 207.32273,39.324777 -2.3876,0.9652 c 0.5842,0.8382 1.2192,2.0574 1.7018,3.048 -0.6604,0.1778 -1.5748,0.2794 -2.3368,0.2794 h -4.0894 c 0.381,-0.6604 0.9906,-1.7018 1.5748,-2.5146 l -4.4958,-1.4732 c -0.2794,0.9906 -0.889,2.3114 -1.3462,3.0226 -1.3462,2.1336 -3.4036,5.1816 -7.8994,7.9502 l 3.4544,2.5654 c 2.3368,-1.6256 4.5974,-3.81 6.4008,-6.0706 h 6.3246 c -0.3302,1.651 -1.7526,4.572 -3.3528,6.35 -2.159,2.412999 -4.8006,4.571999 -10.287,6.248399 l 3.6576,3.2512 c 4.7752,-1.9558 7.8486,-4.2926 10.3124,-7.3152 2.3368,-2.870199 3.7084,-6.222999 4.3942,-8.331199 0.254,-0.762 0.6604,-1.524 0.9906,-2.0828 l -2.5908,-1.6002 1.9558,-0.8128 c -0.4572,-0.889 -1.3462,-2.54 -1.9812,-3.4798 z m 3.1242,-1.2192 -2.3876,0.9652 c 0.6858,0.9652 1.4986,2.4638 2.0066,3.5052 l 2.3876,-1.016 c -0.4318,-0.8636 -1.3462,-2.4892 -2.0066,-3.4544 z"
         style="font-weight:900;font-family:'Noto Sans JP';-inkscape-font-specification:'Noto Sans JP Heavy'"
         id="path1439" />
      <path
         d="m 232.21472,39.324777 -2.3876,0.9652 c 0.5842,0.8382 1.2192,2.0574 1.7018,3.048 -0.6604,0.1778 -1.5748,0.2794 -2.3368,0.2794 h -4.0894 c 0.381,-0.6604 0.9906,-1.7018 1.5748,-2.5146 l -4.4958,-1.4732 c -0.2794,0.9906 -0.889,2.3114 -1.3462,3.0226 -1.3462,2.1336 -3.4036,5.1816 -7.8994,7.9502 l 3.4544,2.5654 c 2.3368,-1.6256 4.5974,-3.81 6.4008,-6.0706 h 6.3246 c -0.3302,1.651 -1.7526,4.572 -3.3528,6.35 -2.159,2.412999 -4.8006,4.571999 -10.287,6.248399 l 3.6576,3.2512 c 4.7752,-1.9558 7.8486,-4.2926 10.3124,-7.3152 2.3368,-2.870199 3.7084,-6.222999 4.3942,-8.331199 0.254,-0.762 0.6604,-1.524 0.9906,-2.0828 l -2.5908,-1.6002 1.9558,-0.8128 c -0.4572,-0.889 -1.3462,-2.54 -1.9812,-3.4798 z m 3.1242,-1.2192 -2.3876,0.9652 c 0.6858,0.9652 1.4986,2.4638 2.0066,3.5052 l 2.3876,-1.016 c -0.4318,-0.8636 -1.3462,-2.4892 -2.0066,-3.4544 z"
         style="font-weight:900;font-family:'Noto Sans JP';-inkscape-font-specification:'Noto Sans JP Heavy'"
         id="path1436" />
      <path
         d="m 242.90812,40.874177 0.0762,3.9878 c 0.5842,-0.1016 1.6002,-0.2032 2.286,-0.254 1.1938,-0.0762 4.0386,-0.254 5.3086,-0.2794 -1.905,2.0066 -7.9248,6.858 -11.1252,9.271 l 2.8448,3.047999 c 2.4892,-2.616199 5.4864,-5.283199 9.1948,-5.283199 2.6924,0 4.3942,1.397 4.3942,3.1496 0,3.124199 -3.9116,4.394199 -10.922,3.454399 l 1.0668,4.0132 c 9.9568,0.7874 14.1224,-2.3368 14.1224,-7.467599 0,-3.6068 -3.1496,-6.4008 -7.7724,-6.4008 -0.4318,0 -1.1938,0.0508 -1.7018,0.1524 2.2352,-1.6764 4.3688,-3.302 5.588,-4.1148 0.4064,-0.254 1.016,-0.6604 1.5748,-0.9398 l -1.9812,-2.667 c -0.5334,0.127 -1.397,0.254 -2.0574,0.3048 -1.7018,0.1016 -7.2898,0.1524 -8.6614,0.1524 -0.9398,0 -1.8288,-0.0762 -2.2352,-0.127 z"
         style="font-weight:900;font-family:'Noto Sans JP';-inkscape-font-specification:'Noto Sans JP Heavy'"
         id="path1433" />
      <path
         d="m 267.92712,54.056777 c -2.3368,0 -4.2418,1.904999 -4.2418,4.241799 0,2.3368 1.905,4.2418 4.2418,4.2418 2.3622,0 4.2418,-1.905 4.2418,-4.2418 0,-2.3368 -1.8796,-4.241799 -4.2418,-4.241799 z m 0,6.349999 c -1.143,0 -2.1082,-0.9398 -2.1082,-2.1082 0,-1.1684 0.9652,-2.1082 2.1082,-2.1082 1.1684,0 2.1082,0.9398 2.1082,2.1082 0,1.1684 -0.9398,2.1082 -2.1082,2.1082 z"
         style="font-weight:900;font-family:'Noto Sans JP';-inkscape-font-specification:'Noto Sans JP Heavy'"
         id="path1430" />
    </g>
  </g>
</svg>
