<?xml version="1.0" encoding="UTF-8" standalone="no"?>
<!-- Created with Inkscape (http://www.inkscape.org/) -->

<svg
   width="306mm"
   height="79mm"
   viewBox="0 0 306 79"
   version="1.1"
   id="svg5"
   xmlns="http://www.w3.org/2000/svg"
   xmlns:svg="http://www.w3.org/2000/svg">
  <defs
     id="defs2" />
  <g
     id="layer1">
    <g
       aria-label="G"
       transform="scale(1.2087637,0.82729156)"
       id="text167"
       style="font-weight:bold;font-size:96.2666px;font-family:HGPSoeiKakugothicUB;-inkscape-font-specification:'HGPSoeiKakugothicUB Bold';fill:#00ad00;stroke-width:0.361">
      <path
         d="M 53.241848,26.348106 H 41.584564 q -1.128124,-8.648952 -7.896869,-12.785408 -7.520829,-3.384372 -13.537491,1.504166 -8.272911,6.768745 -8.272911,23.690609 0,14.289574 4.888538,21.058319 4.512497,6.392704 10.905201,6.392704 5.640621,0 9.024994,-4.888538 3.384373,-4.888539 5.640621,-13.537491 H 29.551239 V 36.501225 H 53.993931 V 77.86578 H 44.216854 V 68.088703 Q 34.439777,82.002235 19.774162,77.489738 11.12521,74.105366 5.86063,64.70433 0.22000885,54.551212 0.22000885,39.133514 q 0,-13.53749 4.51249695,-22.938526 3.7604141,-7.8968694 9.7770772,-12.0333249 6.016662,-4.13645558 13.53749,-4.13645558 12.033326,0 20.306237,12.03332548 4.136455,6.016662 4.888538,14.289573 z"
         id="path407" />
    </g>
    <g
       aria-label="o"
       transform="scale(1.1729207,0.85257255)"
       id="text649"
       style="font-weight:bold;font-size:75.916px;font-family:HGPSoeiKakugothicUB;-inkscape-font-specification:'HGPSoeiKakugothicUB Bold';fill:#f9ca00;stroke-width:0.227748">
      <path
         d="m 58.952297,52.491215 q 0,-8.303313 3.855109,-15.123891 4.151656,-7.413672 12.158422,-8.303312 6.820578,-0.593094 11.861875,4.448203 6.227484,6.227484 6.227484,18.089359 0,13.641157 -5.930937,19.572094 -4.74475,4.74475 -10.972235,4.74475 -6.227484,0 -10.972234,-4.74475 -6.227484,-6.227484 -6.227484,-18.682453 z m 9.192953,-1.482734 q -0.296547,6.227484 1.186187,10.082593 1.779281,5.041297 5.634391,6.227485 4.74475,0.593094 7.117125,-3.85511 1.482734,-2.965468 2.075828,-8.303312 0.296547,-7.413672 -1.186187,-11.565328 -2.075829,-6.227485 -6.524032,-6.227485 -3.262015,0 -5.337844,3.262016 -2.668921,3.855109 -2.965468,10.379141 z"
         id="path410" />
    </g>
    <g
       aria-label="o"
       transform="scale(1.1729209,0.85257242)"
       id="text653"
       style="font-weight:bold;font-size:75.916px;font-family:HGPSoeiKakugothicUB;-inkscape-font-specification:'HGPSoeiKakugothicUB Bold';fill:#0078ff;stroke-width:0.227748">
      <path
         d="m 95.464347,52.27174 q 0,-8.303312 3.85511,-15.12389 4.151653,-7.413672 12.158423,-8.303313 6.82058,-0.593094 11.86187,4.448203 6.22749,6.227485 6.22749,18.08936 0,13.641156 -5.93094,19.572093 -4.74475,4.74475 -10.97223,4.74475 -6.22749,0 -10.97224,-4.74475 -6.227483,-6.227484 -6.227483,-18.682453 z m 9.192953,-1.482734 q -0.29655,6.227484 1.18619,10.082594 1.77928,5.041297 5.63439,6.227484 4.74475,0.593094 7.11712,-3.855109 1.48274,-2.965469 2.07583,-8.303313 0.29655,-7.413672 -1.18619,-11.565328 -2.07582,-6.227484 -6.52403,-6.227484 -3.26201,0 -5.33784,3.262015 -2.66892,3.85511 -2.96547,10.379141 z"
         id="path413" />
    </g>
    <g
       aria-label="g"
       transform="scale(1.1078653,0.9026368)"
       id="text2222"
       style="font-weight:bold;font-size:84.7464px;font-family:HGPSoeiKakugothicUB;-inkscape-font-specification:'HGPSoeiKakugothicUB Bold';fill:#00ad00;stroke-width:0.254239">
      <path
         d="m 165.96149,30.902197 v -3.972488 h 9.60018 v 42.3732 q 0,8.607056 -4.63457,13.241625 -4.63457,4.634568 -12.57955,4.634568 -7.28289,0 -11.58642,-3.310406 -4.63457,-3.641447 -5.95873,-11.586422 h 9.60018 q 0.99312,6.951854 7.28289,6.951854 3.31041,0 5.62769,-2.317285 2.64833,-2.648325 2.64833,-7.944975 v -2.648325 q -4.30353,5.958731 -12.2485,4.96561 -13.24163,-1.655203 -14.23475,-20.193478 -0.33104,-9.600178 4.30353,-17.876194 3.97248,-6.289772 10.26226,-6.951853 7.61393,-0.662081 11.91746,4.634569 z m -9.26914,31.779899 q 4.30353,0 6.62081,-3.310406 2.64833,-3.972487 2.64833,-10.5933 0,-6.289771 -1.98625,-10.262259 -1.6552,-3.310406 -5.29665,-3.972487 -7.94497,-0.993122 -9.60017,13.241625 0,7.613934 2.31728,11.586421 1.98624,3.310406 5.29665,3.310406 z"
         id="path416" />
    </g>
    <g
       aria-label="l"
       transform="scale(1.0517377,0.95080744)"
       id="text7686"
       style="font-weight:bold;font-size:83.8558px;font-family:HGPSoeiKakugothicUB;-inkscape-font-specification:'HGPSoeiKakugothicUB Bold';fill:#ff0000;stroke-width:0.251567">
      <path
         d="m 188.70679,0.04722527 h 9.82685 V 67.524937 h -9.82685 z"
         id="path419" />
    </g>
    <g
       aria-label="o"
       transform="scale(1.1729209,0.85257242)"
       id="text8416"
       style="font-weight:bold;font-size:75.916px;font-family:HGPSoeiKakugothicUB;-inkscape-font-specification:'HGPSoeiKakugothicUB Bold';fill:#f9ca00;stroke-width:0.227748">
      <path
         d="m 181.02906,52.167172 q 0,-8.303313 3.85511,-15.123891 4.15166,-7.413672 12.15842,-8.303313 6.82058,-0.593093 11.86188,4.448204 6.22748,6.227484 6.22748,18.089359 0,13.641156 -5.93094,19.572094 -4.74475,4.74475 -10.97223,4.74475 -6.22749,0 -10.97224,-4.74475 -6.22748,-6.227484 -6.22748,-18.682453 z m 9.19295,-1.482735 q -0.29654,6.227485 1.18619,10.082594 1.77928,5.041297 5.63439,6.227485 4.74475,0.593093 7.11713,-3.85511 1.48273,-2.965469 2.07582,-8.303312 0.29655,-7.413672 -1.18618,-11.565329 -2.07583,-6.227484 -6.52403,-6.227484 -3.26202,0 -5.33785,3.262016 -2.66892,3.855109 -2.96547,10.37914 z"
         id="path422" />
    </g>
    <g
       aria-label="w"
       transform="scale(1.0877705,0.91931157)"
       id="text10043"
       style="font-weight:bold;font-size:71.863px;font-family:HGPSoeiKakugothicUB;-inkscape-font-specification:'HGPSoeiKakugothicUB Bold';fill:#0078ff;stroke-width:0.215589">
      <path
         d="m 231.88726,26.557122 h 8.42145 l 5.6143,26.66791 5.61429,-26.66791 h 7.29859 l 5.89501,26.66791 5.33358,-26.66791 h 8.70216 l -9.26359,43.5108 h -8.14073 l -5.89501,-26.387195 -6.17573,26.387195 h -8.14073 z"
         id="path425" />
    </g>
    <g
       aria-label="ググろ。"
       id="text10980"
       style="font-weight:bold;font-size:35.2778px;font-family:HGPSoeiKakugothicUB;-inkscape-font-specification:'HGPSoeiKakugothicUB Bold';stroke-width:0.264583">
      <path
         d="m 222.69633,48.332194 2.34266,-1.653647 3.16949,3.582902 -2.48047,1.653647 z m 4.96094,-0.137804 2.20486,-1.653647 3.16949,3.445098 -2.48047,1.791451 z M 204.2306,62.525997 q 6.8902,-5.64996 10.4731,-14.331607 l 4.96094,1.929255 -1.24024,2.893882 h 8.26824 l 0.41341,-0.551215 3.99631,2.48047 q -5.09874,16.123058 -18.74133,23.426665 l -3.85851,-4.134117 q 12.12675,-6.201176 15.84745,-16.674274 h -8.68164 q -2.89389,4.409726 -7.30361,8.406039 z"
         id="path428" />
      <path
         d="m 252.59977,48.332194 2.34267,-1.653647 3.16949,3.582902 -2.48047,1.653647 z m 4.96094,-0.137804 2.20487,-1.653647 3.16949,3.445098 -2.48047,1.791451 z m -23.42666,14.331607 q 6.8902,-5.64996 10.4731,-14.331607 l 4.96094,1.929255 -1.24024,2.893882 h 8.26824 l 0.41341,-0.551215 3.99631,2.48047 q -5.09874,16.123058 -18.74133,23.426665 l -3.85851,-4.134117 q 12.12675,-6.201176 15.84745,-16.674274 h -8.68165 q -2.89388,4.409726 -7.3036,8.406039 z"
         id="path430" />
      <path
         d="m 264.0375,67.349134 q 9.37066,-8.268235 14.1938,-12.67796 -5.78776,1.102431 -9.64627,1.240235 l -0.68902,-4.685333 q 10.33529,-0.826823 16.26086,-2.756078 l 3.16949,3.720706 q -4.96094,4.409725 -8.68165,7.579215 7.85483,-1.791451 11.43773,1.791451 2.20486,2.067058 2.06706,5.236548 0,2.756079 -1.79146,5.374353 -2.06705,3.307294 -7.02799,4.823137 -3.99632,1.240235 -9.09506,0.964627 l -0.96463,-4.685333 q 4.82314,0.413412 8.54384,-0.826823 5.37436,-1.653647 5.37436,-5.649961 0,-1.653647 -1.24024,-2.48047 -1.65365,-1.102431 -3.72071,-0.964627 -7.57921,0.137804 -15.15843,7.717019 z"
         id="path432" />
      <path
         d="m 300.55553,79.062467 q -1.92925,0 -3.4451,-1.515843 -1.51584,-1.515843 -1.51584,-3.445098 0,-1.929255 1.51584,-3.445098 1.51585,-1.515843 3.4451,-1.515843 1.92926,0 3.4451,1.515843 1.51584,1.515843 1.51584,3.445098 0,1.929255 -1.51584,3.445098 -1.51584,1.515843 -3.4451,1.515843 z m 1.51585,-3.582902 q 0.55121,-0.551216 0.55121,-1.378039 0,-0.826824 -0.55121,-1.378039 -0.68902,-0.68902 -1.51585,-0.68902 -0.82682,0 -1.51584,0.68902 -0.55122,0.551215 -0.55122,1.378039 0,0.826823 0.55122,1.378039 0.68902,0.689019 1.51584,0.689019 0.82683,0 1.51585,-0.689019 z"
         id="path434" />
    </g>
  </g>
</svg>
